PathFileType	4	(X/Y/Z)	C:\Users\Biomechanik\SynologyDrive\AlexP\Athlete_03\Athlete_3_25_03_31\Squat_bar_03\marker_experimental.trc
DataRate	CameraRate	NumFrames	NumMarkers	Units	OrigDataRate	OrigDataStartFrame	OrigNumFrames
200.000000	200.000000	4	55	mm	200.000000	0	497
Frame#	Time	BL			BR			GLAB			RFHD			LFHD			C7			T6			SPINMOL			SPINM2			SPINM3			T12			BELTOL			BELT2			BELT3			SACROL			SACR2			SACR3			LTHOL			LTH2			LTH3			LSHAOL			LSHA2			LSHA3			LHEE			LTOE			LM5			RTHOL			RTH2			RTH3			RSHAOL			RSHA2			RSHA3			RHEE			RTOE			RM5			STRN			XIPH			LACR			LUAOL			LUA2			LUA3			LLAOL			LLA2			LLA3			LWRR			LWRU			RACR			RUAOL			RUA2			RUA3			RLAOL			RLA2			RLA3			RWRR			RWRU			
		X1	Y1	Z1	X2	Y2	Z2	X3	Y3	Z3	X4	Y4	Z4	X5	Y5	Z5	X6	Y6	Z6	X7	Y7	Z7	X8	Y8	Z8	X9	Y9	Z9	X10	Y10	Z10	X11	Y11	Z11	X12	Y12	Z12	X13	Y13	Z13	X14	Y14	Z14	X15	Y15	Z15	X16	Y16	Z16	X17	Y17	Z17	X18	Y18	Z18	X19	Y19	Z19	X20	Y20	Z20	X21	Y21	Z21	X22	Y22	Z22	X23	Y23	Z23	X24	Y24	Z24	X25	Y25	Z25	X26	Y26	Z26	X27	Y27	Z27	X28	Y28	Z28	X29	Y29	Z29	X30	Y30	Z30	X31	Y31	Z31	X32	Y32	Z32	X33	Y33	Z33	X34	Y34	Z34	X35	Y35	Z35	X36	Y36	Z36	X37	Y37	Z37	X38	Y38	Z38	X39	Y39	Z39	X40	Y40	Z40	X41	Y41	Z41	X42	Y42	Z42	X43	Y43	Z43	X44	Y44	Z44	X45	Y45	Z45	X46	Y46	Z46	X47	Y47	Z47	X48	Y48	Z48	X49	Y49	Z49	X50	Y50	Z50	X51	Y51	Z51	X52	Y52	Z52	X53	Y53	Z53	X54	Y54	Z54	X55	Y55	Z55	

1	0	133.9545440673828	1350.049926757813	-2234.66748046875	180.2502899169922	1363.676513671875	-213.7845458984374	433.890380859375	1575.163452148438	-1182.581665039062	381.1693420410156	1594.0654296875	-1118.771240234375	388.9872436523438	1598.23876953125	-1254.274291992188	203.5972442626953	1429.61279296875	-1198.52978515625	113.3327484130859	1277.615600585938	-1206.02587890625	98.70675659179688	1243.189819335938	-1225.269165039062	91.5013427734375	1235.132202148438	-1176.255493164062	87.74156188964844	1179.427124023438	-1211.653930664062	83.63868713378906	1108.6123046875	-1213.120971679688	61.58814239501953	1071.452514648438	-1231.787963867188	61.12228012084961	1066.951293945312	-1181.849731445312	50.89617538452148	1008.943542480469	-1213.279296875	46.93692779541016	937.3405151367189	-1237.634521484375	46.11124038696289	932.8851928710939	-1186.164428710938	38.3970832824707	874.7109375000001	-1216.410522460938	129.6648559570312	679.9816284179689	-1424.017822265625	96.34234619140625	616.1945800781251	-1389.51171875	134.4091796875	618.0798339843751	-1421.903930664062	122.7532653808594	331.4710388183595	-1498.908203125	87.03223419189453	261.339569091797	-1487.667358398438	131.0135803222656	271.100067138672	-1510.922607421875	109.1564636230469	68.23580932617196	-1467.9638671875	314.302490234375	50.99430084228525	-1539.233276367188	239.0458374023438	26.06795501708994	-1619.691162109375	101.0094833374023	687.3450317382814	-1015.744384765625	145.3939208984375	639.0596923828126	-970.34423828125	111.3987197875977	627.5947875976564	-1005.034973144531	78.81309509277344	346.4926452636719	-935.7158813476562	110.7280044555664	284.3805847167969	-899.727294921875	74.37345886230469	284.2624511718751	-933.5895385742188	88.09825134277344	62.61819458007818	-965.3685913085938	279.5143127441406	48.39327239990239	-870.2955322265625	191.1091156005859	37.578540802002	-798.6632080078125	350.8499450683594	1300.142822265625	-1204.43115234375	345.8171997070312	1154.42041015625	-1203.17431640625	243.4072875976562	1393.4638671875	-1366.749755859375	142.3610992431641	1265.68798828125	-1454.259643554688	99.21613311767578	1217.7431640625	-1441.34814453125	130.7407531738281	1206.884399414062	-1480.294067382812	105.9451904296875	1137.1328125	-1547.390625	175.2492828369141	1139.335815429688	-1585.630249023438	143.8757171630859	1176.9755859375	-1574.96728515625	192.2904510498047	1260.542236328125	-1617.755615234375	200.713623046875	1292.558715820312	-1546.27880859375	261.1161193847656	1386.749145507812	-1037.427978515625	164.9944000244141	1258.132690429688	-954.5042724609374	147.6945343017578	1199.647216796875	-928.8839111328124	123.8258743286133	1210.998657226562	-973.8264770507811	149.0565948486328	1129.708129882812	-847.6132812499999	141.3979034423828	1207.611938476562	-833.8331909179686	181.4866790771484	1177.580322265625	-824.6248779296874	205.3412780761719	1266.40966796875	-801.6824951171874	222.3205413818359	1303.321166992188	-870.4953613281249	
2	0.005	133.9797821044922	1350.001831054688	-2234.671142578125	180.3085632324219	1363.720336914062	-213.791534423828	433.8768615722656	1575.21484375	-1182.605224609375	381.1418151855469	1594.10595703125	-1118.815307617188	388.9679260253906	1598.256713867188	-1254.307861328125	203.6135711669922	1429.614379882812	-1198.531372070312	113.3758010864258	1277.614990234375	-1206.019409179688	98.74102783203125	1243.193359375	-1225.262817382812	91.53186798095703	1235.129516601562	-1176.2392578125	87.77067565917969	1179.431030273438	-1211.644165039062	83.65912628173828	1108.62451171875	-1213.099365234375	61.61223602294922	1071.47412109375	-1231.768432617188	61.15042114257812	1066.979858398438	-1181.823852539062	50.91748046875	1008.960815429688	-1213.255981445312	46.92667388916016	937.3422851562501	-1237.615478515625	46.10087203979492	932.8921508789064	-1186.139404296875	38.39515686035156	874.7119750976564	-1216.383056640625	129.6598968505859	679.9737548828126	-1424.008422851562	96.31326293945312	616.1911010742189	-1389.5205078125	134.4022216796875	618.0766601562501	-1421.897216796875	122.7509918212891	331.469940185547	-1498.921142578125	87.04113006591797	261.3364562988282	-1487.66357421875	131.0195922851562	271.0976562500001	-1510.920043945312	109.1609191894531	68.24270629882821	-1467.955932617188	314.3005981445312	50.99279403686533	-1539.235107421875	239.0438537597656	26.07269287109385	-1619.68603515625	101.0121459960938	687.3317260742189	-1015.707153320312	145.4116516113281	639.0625000000001	-970.3208618164062	111.4140396118164	627.5967407226564	-1005.007141113281	78.83177947998047	346.4983520507813	-935.6951904296875	110.7484588623047	284.3744812011719	-899.7220458984375	74.39306640625	284.2672729492188	-933.5709838867188	88.11619567871094	62.60538482666021	-965.3707885742188	279.5156860351562	48.38899993896489	-870.2943725585938	191.1106109619141	37.57820892333989	-798.6629028320312	350.9031372070312	1300.16650390625	-1204.429931640625	345.88330078125	1154.446899414062	-1203.165161132812	243.4443664550781	1393.46923828125	-1366.753173828125	142.44482421875	1265.671630859375	-1454.259765625	99.30345916748047	1217.727416992188	-1441.350830078125	130.7726745605469	1206.868896484375	-1480.316040039062	106.0337753295898	1137.105834960938	-1547.402099609375	175.341552734375	1139.326782226562	-1585.634399414062	143.9829864501953	1176.973876953125	-1574.966186523438	192.3465118408203	1260.536010742188	-1617.766235351562	200.7749328613281	1292.55322265625	-1546.285888671875	261.1539916992188	1386.766235351562	-1037.430297851562	165.1111755371094	1258.107666015625	-954.5109252929686	147.7728424072266	1199.651733398438	-928.9138183593749	123.8910903930664	1211.00439453125	-973.8112792968749	149.1319427490234	1129.721923828125	-847.5973510742186	141.4490051269531	1207.663452148438	-833.8342285156249	181.5582885742188	1177.600463867188	-824.6136474609374	205.3648071289062	1266.435424804688	-801.6734008789061	222.3478546142578	1303.350708007812	-870.4924926757811	
3	0.01	134.0103759765625	1349.947387695313	-2234.6748046875	180.3759613037109	1363.769897460938	-213.7993164062499	433.8627014160156	1575.2734375	-1182.633911132812	381.1123046875	1594.152099609375	-1118.866333007812	388.9461059570312	1598.27783203125	-1254.346557617188	203.6337432861328	1429.615966796875	-1198.532958984375	113.4260940551758	1277.614501953125	-1206.011352539062	98.78049468994141	1243.198120117188	-1225.25537109375	91.56657409667969	1235.126220703125	-1176.221069335938	87.80400085449219	1179.436157226562	-1211.632934570312	83.68376922607422	1108.639038085938	-1213.074584960938	61.63829040527344	1071.500854492188	-1231.745849609375	61.18106079101562	1067.012329101562	-1181.795166015625	50.94256973266602	1008.981994628906	-1213.227905273438	46.91270446777344	937.3438110351564	-1237.594116210938	46.08591842651367	932.9002685546876	-1186.110961914062	38.39147186279297	874.7128295898439	-1216.3525390625	129.6541900634766	679.9639892578126	-1423.998901367188	96.28451538085938	616.1859741210939	-1389.528686523438	134.3949737548828	618.0719604492189	-1421.890502929688	122.7481384277344	331.4686584472657	-1498.9365234375	87.05110931396484	261.3328247070314	-1487.659545898438	131.0262145996094	271.0947265625001	-1510.917358398438	109.1656646728516	68.24957275390634	-1467.94775390625	314.2985534667969	50.99102020263681	-1539.2373046875	239.0413208007812	26.07805824279795	-1619.6796875	101.0162200927734	687.3187866210939	-1015.663879394531	145.4318237304688	639.0657958984376	-970.2924194335938	111.4316329956055	627.5988769531251	-1004.974060058594	78.85447692871094	346.5048217773438	-935.67041015625	110.7729187011719	284.3672790527344	-899.7151489257812	74.41646575927734	284.2729492187501	-933.5487670898438	88.13758850097656	62.5898170471192	-965.373291015625	279.5173950195312	48.38374710083013	-870.2926635742188	191.1123657226562	37.57774353027349	-798.6625366210938	350.965087890625	1300.193359375	-1204.428100585938	345.9591674804688	1154.476440429688	-1203.154296875	243.4881896972656	1393.475219726562	-1366.7568359375	142.5331268310547	1265.654907226562	-1454.262939453125	99.40023803710938	1217.711059570312	-1441.354248046875	130.809814453125	1206.851318359375	-1480.340087890625	106.1339797973633	1137.075805664062	-1547.414184570312	175.4465179443359	1139.316528320312	-1585.638549804688	144.0997772216797	1176.970092773438	-1574.965454101562	192.4118499755859	1260.528198242188	-1617.777221679688	200.8448333740234	1292.546630859375	-1546.293701171875	261.1988220214844	1386.785888671875	-1037.4326171875	165.2361297607422	1258.085205078125	-954.5141601562499	147.8625183105469	1199.658081054688	-928.9405517578124	123.9665451049805	1211.011596679688	-973.7938232421874	149.2193298339844	1129.737915039062	-847.5788574218749	141.5099029541016	1207.71826171875	-833.8341674804686	181.6412048339844	1177.624145507812	-824.6004028320311	205.3987884521484	1266.464965820312	-801.6635742187499	222.3899078369141	1303.3828125	-870.4890747070311	
4	0.015	134.0465850830078	1349.887329101563	-2234.6787109375	180.4520874023438	1363.824584960938	-213.8076782226562	433.8484802246094	1575.338500976562	-1182.667846679688	381.0817565917969	1594.203247070312	-1118.924194335938	388.9220886230469	1598.30224609375	-1254.39013671875	203.6580505371094	1429.617797851562	-1198.534423828125	113.4834594726562	1277.6142578125	-1206.001831054688	98.82490539550781	1243.204345703125	-1225.246826171875	91.60513305664062	1235.122314453125	-1176.201171875	87.84117889404297	1179.442504882812	-1211.6201171875	83.71270751953125	1108.655639648438	-1213.046630859375	61.66561889648438	1071.532836914062	-1231.720336914062	61.21358108520508	1067.048706054688	-1181.76416015625	50.97149276733398	1009.007385253906	-1213.19482421875	46.89447784423828	937.3449096679689	-1237.571166992188	46.06559753417969	932.9096679687501	-1186.07958984375	38.38556289672852	874.7133178710939	-1216.319458007812	129.6477203369141	679.9522094726564	-1423.989990234375	96.25729370117188	616.1787719726564	-1389.5361328125	134.3876953125	618.0654296875001	-1421.88427734375	122.7447052001953	331.467254638672	-1498.95458984375	87.06203460693359	261.3287353515626	-1487.655151367188	131.0333557128906	271.0913391113282	-1510.914794921875	109.170524597168	68.25600433349618	-1467.939697265625	314.2963256835938	50.98898315429697	-1539.239990234375	239.0381927490234	26.08401107788096	-1619.672241210938	101.0218353271484	687.3067626953126	-1015.614868164062	145.4541931152344	639.0696411132814	-970.2586669921875	111.4513778686523	627.6011352539064	-1004.935485839844	78.88140869140625	346.5120239257813	-935.641357421875	110.8014755249023	284.3589782714844	-899.7063598632812	74.44376373291016	284.2794799804688	-933.5227661132812	88.16241455078125	62.57146072387701	-965.3761596679688	279.5194396972656	48.37746047973638	-870.2904663085938	191.1144104003906	37.57711410522466	-798.662109375	351.0354919433594	1300.22314453125	-1204.425537109375	346.044189453125	1154.508666992188	-1203.141845703125	243.5388031005859	1393.481689453125	-1366.760498046875	142.6236877441406	1265.638427734375	-1454.269653320312	99.50473022460938	1217.6943359375	-1441.358520507812	130.8524475097656	1206.831787109375	-1480.365478515625	106.2446060180664	1137.04296875	-1547.42626953125	175.5630035400391	1139.305053710938	-1585.642456054688	144.2240600585938	1176.964111328125	-1574.965209960938	192.4862823486328	1260.518798828125	-1617.7880859375	200.9225616455078	1292.5390625	-1546.301879882812	261.2506713867188	1386.807861328125	-1037.4345703125	165.3668060302734	1258.066772460938	-954.5130615234374	147.9627838134766	1199.66650390625	-928.9625244140624	124.0518569946289	1211.020385742188	-973.7743530273436	149.3183135986328	1129.756225585938	-847.5579223632811	141.5804748535156	1207.775268554688	-833.8328857421874	181.7350158691406	1177.651245117188	-824.5850219726561	205.4449920654297	1266.498168945312	-801.6534423828124	222.4474334716797	1303.416748046875	-870.4851074218749	
